<svg xmlns="http://www.w3.org/2000/svg" width="200" height="200" viewBox="0 0 200 200">
  <defs>
    <linearGradient id="gradient" x1="0%" y1="0%" x2="100%" y2="100%">
      <stop offset="0%" stop-color="#3498db" />
      <stop offset="100%" stop-color="#2c3e50" />
    </linearGradient>
  </defs>
  <circle cx="100" cy="100" r="90" fill="white" stroke="url(#gradient)" stroke-width="6" />
  <g fill="url(#gradient)">
    <path d="M70 80 L70 130 L90 130 L90 80 Z" />
    <path d="M100 80 L100 130 L120 130 L120 80 Z" />
    <path d="M130 80 L130 130 L150 130 L150 80 Z" />
    <path d="M50 140 L150 140 L150 150 L50 150 Z" />
    <path d="M50 70 L150 70 L150 80 L50 80 Z" />
    <path d="M90 50 L110 50 L110 70 L90 70 Z" />
    <path d="M60 60 L80 60 L80 70 L60 70 Z" />
    <path d="M120 60 L140 60 L140 70 L120 70 Z" />
  </g>
  <text x="100" y="170" font-family="Arial" font-size="16" font-weight="bold" text-anchor="middle" fill="#2c3e50">UKM FINANCE</text>
</svg> 