<svg xmlns="http://www.w3.org/2000/svg" width="1200" height="300" viewBox="0 0 1200 300">
  <defs>
    <linearGradient id="headerGradient" x1="0%" y1="0%" x2="100%" y2="100%">
      <stop offset="0%" stop-color="#3498db" />
      <stop offset="100%" stop-color="#2c3e50" />
    </linearGradient>
    <pattern id="pattern" width="40" height="40" patternUnits="userSpaceOnUse">
      <circle cx="20" cy="20" r="3" fill="rgba(255,255,255,0.1)" />
    </pattern>
  </defs>
  <rect width="100%" height="100%" fill="url(#headerGradient)" />
  <rect width="100%" height="100%" fill="url(#pattern)" />
  
  <!-- Abstract financial elements -->
  <g opacity="0.2" fill="none" stroke="white" stroke-width="2">
    <!-- Graph lines -->
    <polyline points="0,200 100,180 200,220 300,150 400,190 500,120 600,170 700,100 800,130 900,80 1000,110 1100,70 1200,90" />
    <polyline points="0,250 100,240 200,260 300,230 400,250 500,220 600,240 700,210 800,230 900,200 1000,220 1100,190 1200,210" />
    
    <!-- Circles representing data points -->
    <circle cx="100" cy="180" r="5" />
    <circle cx="300" cy="150" r="5" />
    <circle cx="500" cy="120" r="5" />
    <circle cx="700" cy="100" r="5" />
    <circle cx="900" cy="80" r="5" />
    <circle cx="1100" cy="70" r="5" />
    
    <!-- Bar chart elements -->
    <rect x="50" y="220" width="20" height="80" />
    <rect x="150" y="240" width="20" height="60" />
    <rect x="250" y="200" width="20" height="100" />
    <rect x="350" y="230" width="20" height="70" />
    <rect x="450" y="210" width="20" height="90" />
    <rect x="550" y="180" width="20" height="120" />
    <rect x="650" y="220" width="20" height="80" />
    <rect x="750" y="190" width="20" height="110" />
    <rect x="850" y="230" width="20" height="70" />
    <rect x="950" y="200" width="20" height="100" />
    <rect x="1050" y="170" width="20" height="130" />
    <rect x="1150" y="210" width="20" height="90" />
  </g>
</svg> 